<svg version="1.1" id="Layer_1" xmlns="http://www.w3.org/2000/svg" xmlns:xlink="http://www.w3.org/1999/xlink" x="0px" y="0px"
	 width="100%" viewBox="0 0 783 505" enable-background="new 0 0 783 505" xml:space="preserve">
<path fill="#000000" opacity="1.000000" stroke="none" 
	d="
M310.000000,506.000000 
	C207.085251,506.000000 104.170509,506.000000 1.000000,506.000000 
	C1.000000,433.645447 1.000000,361.290558 1.392740,288.223755 
	C2.190253,289.027435 2.820034,290.522858 2.958260,292.062408 
	C3.399986,296.982391 3.702803,301.916260 3.981351,306.849152 
	C5.004597,324.970154 6.036789,343.090790 6.982157,361.215942 
	C7.421495,369.639160 7.527860,378.082947 8.157334,386.489532 
	C8.250881,387.738861 10.245573,389.581482 11.625708,389.866516 
	C16.572496,390.888062 21.637655,391.326660 26.649939,392.042480 
	C47.497101,395.019897 68.430489,397.529419 89.131874,401.308258 
	C95.288033,402.432007 98.028854,399.791870 101.130463,396.297546 
	C113.147224,382.759369 125.070801,369.138092 136.972580,355.498474 
	C142.911346,348.692566 148.649216,341.710663 154.622910,334.936188 
	C160.115128,328.707733 165.801682,322.650665 172.121628,315.730865 
	C172.121628,341.365875 172.121628,366.052307 172.121628,390.998993 
	C174.471146,390.998993 176.284897,390.998993 178.098633,390.998993 
	C210.086685,390.999298 242.075821,390.869080 274.061584,391.139404 
	C278.906036,391.180359 281.889526,389.704376 284.609497,385.924194 
	C307.166473,354.574860 329.755127,323.247375 352.516479,292.046295 
	C372.122803,265.170135 392.028900,238.512909 411.690948,211.677155 
	C431.341797,184.856628 450.770752,157.873138 470.499420,131.110321 
	C474.353424,125.882210 476.219604,120.697975 476.156342,114.026100 
	C475.823029,78.875732 476.000031,43.720528 475.999908,8.567002 
	C475.999908,6.804060 475.999908,5.041119 475.999908,3.215885 
	C474.718628,3.111090 474.072327,3.012203 473.426025,3.011991 
	C444.770081,3.002608 416.113312,2.910410 387.459778,3.172282 
	C385.143982,3.193447 382.226837,5.141332 380.654144,7.064707 
	C373.730835,15.532107 367.166199,24.294546 360.530945,32.995342 
	C345.683624,52.464584 330.882324,71.968948 316.035492,91.438560 
	C313.344391,94.967560 310.525574,98.399155 307.101318,102.712639 
	C304.594574,87.279083 302.306854,73.133446 299.996918,58.991432 
	C298.131805,47.572548 296.174316,36.168327 294.382568,24.738037 
	C293.144958,16.842617 292.119995,8.913861 291.000000,1.000000 
	C455.230927,1.000000 619.461853,1.000000 784.000000,1.000000 
	C784.000000,69.687798 784.000000,138.376053 783.607422,207.776566 
	C782.820312,207.805359 782.119324,207.140625 782.076233,206.435669 
	C781.008606,188.982010 779.962463,171.526688 779.020813,154.065826 
	C778.566528,145.642807 778.436768,137.201904 777.951538,128.781113 
	C777.727539,124.894333 777.003296,121.036369 776.511780,117.211830 
	C769.690247,116.360214 763.019775,115.610855 756.374878,114.678864 
	C745.707642,113.182732 735.065125,111.509758 724.397339,110.017952 
	C716.137329,108.862854 707.670898,108.601959 699.637634,106.584198 
	C692.683228,104.837425 688.144653,106.376381 683.653748,111.713417 
	C672.427307,125.054703 660.769470,138.032410 649.324707,151.190765 
	C643.395752,158.007446 637.612671,164.951553 631.651367,171.739395 
	C626.072571,178.091721 620.345398,184.313766 613.823975,191.546417 
	C613.823975,165.934128 613.823975,141.571533 613.823975,117.000893 
	C578.143738,117.000893 543.000427,116.948723 507.858582,117.145004 
	C505.974396,117.155533 503.509094,118.820053 502.312622,120.448242 
	C483.588684,145.928757 465.014221,171.519241 446.435516,197.106323 
	C421.726166,231.136551 397.053558,265.193451 372.345184,299.224335 
	C353.766388,324.812958 335.045319,350.299561 316.665771,376.030273 
	C313.487854,380.479187 309.712982,384.503174 309.789429,391.219910 
	C310.224670,429.475769 310.000183,467.739166 310.000000,506.000000 
z"/>
<path fill="#FF2D6B" opacity="1.000000" stroke="none" 
	d="
M290.531342,1.000000 
	C292.119995,8.913861 293.144958,16.842617 294.382568,24.738037 
	C296.174316,36.168327 298.131805,47.572548 299.996918,58.991432 
	C302.306854,73.133446 304.594574,87.279083 307.101318,102.712639 
	C310.525574,98.399155 313.344391,94.967560 316.035492,91.438560 
	C330.882324,71.968948 345.683624,52.464584 360.530945,32.995342 
	C367.166199,24.294546 373.730835,15.532107 380.654144,7.064707 
	C382.226837,5.141332 385.143982,3.193447 387.459778,3.172282 
	C416.113312,2.910410 444.770081,3.002608 473.426025,3.011991 
	C474.072327,3.012203 474.718628,3.111090 475.999908,3.215885 
	C475.999908,5.041119 475.999908,6.804060 475.999908,8.567002 
	C476.000031,43.720528 475.823029,78.875732 476.156342,114.026100 
	C476.219604,120.697975 474.353424,125.882210 470.499420,131.110321 
	C450.770752,157.873138 431.341797,184.856628 411.690948,211.677155 
	C392.028900,238.512909 372.122803,265.170135 352.516479,292.046295 
	C329.755127,323.247375 307.166473,354.574860 284.609497,385.924194 
	C281.889526,389.704376 278.906036,391.180359 274.061584,391.139404 
	C242.075821,390.869080 210.086685,390.999298 178.098633,390.998993 
	C176.284897,390.998993 174.471146,390.998993 172.121628,390.998993 
	C172.121628,366.052307 172.121628,341.365875 172.121628,315.730865 
	C165.801682,322.650665 160.115128,328.707733 154.622910,334.936188 
	C148.649216,341.710663 142.911346,348.692566 136.972580,355.498474 
	C125.070801,369.138092 113.147224,382.759369 101.130463,396.297546 
	C98.028854,399.791870 95.288033,402.432007 89.131874,401.308258 
	C68.430489,397.529419 47.497101,395.019897 26.649939,392.042480 
	C21.637655,391.326660 16.572496,390.888062 11.625708,389.866516 
	C10.245573,389.581482 8.250881,387.738861 8.157334,386.489532 
	C7.527860,378.082947 7.421495,369.639160 6.982157,361.215942 
	C6.036789,343.090790 5.004597,324.970154 3.981351,306.849152 
	C3.702803,301.916260 3.399986,296.982391 2.958260,292.062408 
	C2.820034,290.522858 2.190253,289.027435 1.392740,287.755920 
	C1.000000,281.645599 1.000000,275.291199 1.240089,268.807007 
	C1.948464,268.230774 2.524791,267.854980 2.869540,267.327759 
	C20.592810,240.223526 38.287254,213.100464 56.007019,185.993927 
	C62.206589,176.510239 68.463280,167.063873 75.226814,156.791016 
	C52.575989,156.791016 30.876703,156.791016 9.000000,156.791016 
	C9.000000,104.504631 9.000000,52.752316 9.000000,1.000000 
	C48.354229,1.000000 87.708458,1.000000 127.302742,1.418431 
	C128.361664,16.658487 129.716522,31.474594 129.869186,46.303078 
	C130.079132,66.691849 129.379272,87.089981 129.073288,107.216293 
	C128.758347,107.360146 129.185547,107.308777 129.321335,107.082520 
	C140.780151,87.990547 152.324081,68.948357 163.608994,49.753876 
	C169.297607,40.078121 174.661240,30.202206 179.889755,20.268333 
	C183.195709,13.987246 185.981110,7.432179 189.000000,1.000003 
	C222.687561,1.000000 256.375122,1.000000 290.531342,1.000000 
M469.871613,9.814247 
	C468.136810,9.542813 466.402466,9.038718 464.667114,9.035008 
	C440.501282,8.983347 416.333801,9.138428 392.170837,8.871680 
	C387.867249,8.824170 385.351624,10.601714 383.076233,13.612475 
	C374.025024,25.588879 365.031891,37.609531 355.924957,49.543350 
	C342.946350,66.550659 329.910950,83.514793 316.847687,100.457153 
	C312.595520,105.971939 308.180054,111.360825 303.441132,117.306877 
	C297.433563,80.322014 291.569733,44.222107 285.686249,8.001315 
	C255.416290,8.001315 225.594910,7.939582 195.775635,8.161301 
	C194.064697,8.174022 191.706604,10.126759 190.768600,11.802817 
	C176.134201,37.952168 161.821106,64.281860 147.109390,90.387093 
	C142.647476,98.304520 137.450211,105.851364 132.041962,113.162750 
	C130.576752,115.143585 127.110672,115.644394 124.562950,116.824509 
	C123.708687,114.511238 122.058746,112.168724 122.142494,109.889915 
	C122.450241,101.514832 123.900040,93.160332 123.891785,84.799103 
	C123.868645,61.367546 123.364792,37.935921 122.946533,14.506180 
	C122.907814,12.337450 122.127632,10.181956 121.601639,7.573563 
	C85.817467,7.573563 50.485744,7.573563 15.263355,7.573563 
	C15.263355,55.387028 15.263355,102.991455 15.263355,150.934967 
	C38.779907,150.934967 62.036720,150.934967 85.758751,150.934967 
	C85.207619,152.258118 84.971954,153.211929 84.463715,153.986984 
	C73.574394,170.592865 62.622772,187.157944 51.748482,203.773621 
	C37.401550,225.695404 23.108183,247.652252 8.804327,269.602203 
	C8.207543,270.518005 7.226401,271.552368 7.290964,272.470551 
	C7.726962,278.670959 8.593214,284.843475 8.954415,291.046356 
	C10.058253,310.002411 11.015382,328.967133 11.990793,347.930481 
	C12.381480,355.525970 12.566508,363.133240 13.044847,370.722565 
	C13.342118,375.439056 14.013886,380.131989 14.480013,384.484772 
	C19.709366,385.344757 24.697201,386.236725 29.707546,386.976196 
	C47.959679,389.670044 66.221100,392.300903 84.475060,394.982422 
	C89.766228,395.759735 94.764503,395.982849 98.058983,390.508850 
	C99.229729,388.563568 100.850235,386.873138 102.362740,385.151886 
	C114.645500,371.173950 126.908562,357.178314 139.262207,343.263153 
	C151.794647,329.146667 164.423492,315.115753 177.510696,300.487854 
	C177.510696,329.024231 177.510696,356.875763 177.510696,384.997284 
	C210.298660,384.997284 242.946518,385.013184 275.594116,384.928467 
	C276.692657,384.925598 278.181305,384.196594 278.827637,383.319427 
	C291.598663,365.987427 304.314941,348.614563 316.954041,331.185944 
	C332.263641,310.074799 347.399384,288.837097 362.778900,267.777191 
	C379.713898,244.587402 396.895630,221.577927 413.867737,198.415070 
	C430.729950,175.402161 447.378357,152.232101 464.322327,129.279938 
	C468.151611,124.092758 470.252625,119.017372 470.175018,112.262871 
	C469.786377,78.435013 469.987427,44.600376 469.871613,9.814247 
z"/>
<path fill="#FF2D6B" opacity="1.000000" stroke="none" 
	d="
M310.468658,506.000000 
	C310.000183,467.739166 310.224670,429.475769 309.789429,391.219910 
	C309.712982,384.503174 313.487854,380.479187 316.665771,376.030273 
	C335.045319,350.299561 353.766388,324.812958 372.345184,299.224335 
	C397.053558,265.193451 421.726166,231.136551 446.435516,197.106323 
	C465.014221,171.519241 483.588684,145.928757 502.312622,120.448242 
	C503.509094,118.820053 505.974396,117.155533 507.858582,117.145004 
	C543.000427,116.948723 578.143738,117.000893 613.823975,117.000893 
	C613.823975,141.571533 613.823975,165.934128 613.823975,191.546417 
	C620.345398,184.313766 626.072571,178.091721 631.651367,171.739395 
	C637.612671,164.951553 643.395752,158.007446 649.324707,151.190765 
	C660.769470,138.032410 672.427307,125.054703 683.653748,111.713417 
	C688.144653,106.376381 692.683228,104.837425 699.637634,106.584198 
	C707.670898,108.601959 716.137329,108.862854 724.397339,110.017952 
	C735.065125,111.509758 745.707642,113.182732 756.374878,114.678864 
	C763.019775,115.610855 769.690247,116.360214 776.511780,117.211830 
	C777.003296,121.036369 777.727539,124.894333 777.951538,128.781113 
	C778.436768,137.201904 778.566528,145.642807 779.020813,154.065826 
	C779.962463,171.526688 781.008606,188.982010 782.076233,206.435669 
	C782.119324,207.140625 782.820312,207.805359 783.607422,208.244415 
	C784.000000,218.354233 784.000000,228.708450 783.759888,239.192764 
	C783.051697,239.768692 782.473999,240.143250 782.131348,240.670563 
	C764.068665,268.474030 746.035034,296.296356 727.975342,324.101715 
	C722.454346,332.602234 716.867920,341.060211 710.880920,350.194519 
	C733.422241,350.194519 755.004700,350.194519 777.000000,350.194519 
	C777.000000,402.342438 777.000000,454.171204 777.000000,506.000000 
	C737.645752,506.000000 698.291565,506.000000 658.691589,505.575562 
	C657.630676,488.652161 656.321838,472.158844 656.132019,455.652649 
	C655.920837,437.285126 656.728577,418.905884 657.094910,400.423676 
	C655.470764,402.459320 653.422668,404.416534 652.097595,406.779205 
	C634.506836,438.145294 617.003906,469.560730 599.544922,501.000397 
	C598.716248,502.492737 598.500977,504.325684 598.000000,506.000000 
	C563.979126,506.000000 529.958191,506.000000 495.791260,505.644318 
	C493.707672,493.730682 491.766205,482.173370 489.833649,470.614563 
	C487.551392,456.963959 485.292938,443.309357 482.992645,429.661774 
	C481.686096,421.910034 480.316620,414.168915 478.862427,405.769928 
	C477.571655,407.001434 476.762604,407.596436 476.174225,408.361176 
	C467.115997,420.134491 458.077637,431.923096 449.052551,443.721863 
	C436.366028,460.307404 423.633820,476.858734 411.060822,493.529968 
	C408.088348,497.471313 405.672089,501.832123 403.000000,506.000000 
	C372.312439,506.000000 341.624878,506.000000 310.468658,506.000000 
M651.057251,397.684052 
	C652.660767,395.998108 654.080688,394.063965 655.923279,392.701294 
	C657.524841,391.516876 659.604187,390.978546 661.472412,390.154694 
	C662.314941,392.146301 663.943726,394.169403 663.865417,396.124115 
	C663.503235,405.163971 662.124268,414.184052 662.111389,423.212616 
	C662.083435,442.807953 662.608765,462.405457 663.035278,481.999298 
	C663.163269,487.881195 663.711975,493.753998 664.071655,499.691040 
	C699.904724,499.691040 735.295715,499.691040 770.647949,499.691040 
	C770.647949,451.662994 770.647949,403.944672 770.647949,355.749359 
	C747.269775,355.749359 724.240723,355.749359 700.210876,355.749359 
	C706.746826,345.539276 712.695190,336.071106 718.817383,326.716644 
	C736.642090,299.481110 754.506470,272.271332 772.427246,245.098862 
	C776.293213,239.237167 779.370056,233.270554 778.016113,225.921219 
	C777.571960,223.510437 777.196472,221.071533 777.023926,218.628922 
	C776.303955,208.437363 775.590637,198.244064 775.027588,188.042984 
	C773.962891,168.753708 773.031250,149.457092 771.968018,130.167725 
	C771.819519,127.473427 771.239258,124.802925 770.901428,122.420967 
	C744.120239,118.692055 717.971130,115.051155 692.354675,111.484413 
	C664.340515,143.371887 636.741943,174.786270 609.143433,206.200653 
	C608.751709,206.046082 608.359985,205.891510 607.968262,205.736938 
	C607.968262,178.241150 607.968262,150.745361 607.968262,122.999931 
	C605.514954,122.999931 603.700989,122.999931 601.887085,122.999931 
	C574.557800,122.999931 547.225342,123.228249 519.901123,122.857117 
	C511.976471,122.749466 506.541016,124.102371 501.554535,131.496445 
	C487.346619,152.564453 471.881104,172.783524 456.942078,193.359619 
	C443.626801,211.699234 430.400513,230.103577 417.050140,248.417542 
	C400.429077,271.218231 383.685181,293.929382 367.061127,316.727905 
	C352.272949,337.008728 337.650848,357.411072 322.792847,377.640350 
	C318.320740,383.729218 315.645477,389.766479 315.779510,397.826904 
	C316.314301,429.979950 316.000031,462.147125 316.000031,494.309052 
	C316.000031,496.084229 316.000031,497.859436 316.000031,499.611603 
	C317.011414,499.804810 317.481415,499.972900 317.951538,499.973206 
	C343.947662,499.990814 369.944214,500.051025 395.939026,499.869080 
	C397.634460,499.857239 399.807343,498.356659 400.929504,496.907104 
	C412.124725,482.445160 423.128113,467.834869 434.220856,453.293335 
	C445.807404,438.104370 457.408203,422.926117 469.053711,407.782379 
	C473.370056,402.169403 477.830902,396.667511 482.576874,390.671539 
	C488.629761,427.656311 494.522095,463.660187 500.406158,499.613556 
	C500.847290,499.754089 501.153839,499.937042 501.460571,499.937347 
	C530.955627,499.966949 560.450867,500.024536 589.945129,499.876678 
	C591.434021,499.869232 593.547302,498.431213 594.303406,497.067841 
	C606.307739,475.422028 617.920593,453.556763 630.095337,432.008606 
	C636.573364,420.543152 643.955261,409.588379 651.057251,397.684052 
z"/>
<path fill="#000000" opacity="1.000000" stroke="none" 
	d="
M8.505266,1.000000 
	C9.000000,52.752316 9.000000,104.504631 9.000000,156.791016 
	C30.876703,156.791016 52.575989,156.791016 75.226814,156.791016 
	C68.463280,167.063873 62.206589,176.510239 56.007019,185.993927 
	C38.287254,213.100464 20.592810,240.223526 2.869540,267.327759 
	C2.524791,267.854980 1.948464,268.230774 1.240089,268.338623 
	C1.000000,179.000000 1.000000,90.000000 1.000000,1.000000 
	C3.352228,1.000000 5.681381,1.000000 8.505266,1.000000 
z"/>
<path fill="#000000" opacity="1.000000" stroke="none" 
	d="
M777.497925,506.000000 
	C777.000000,454.171204 777.000000,402.342438 777.000000,350.194519 
	C755.004700,350.194519 733.422241,350.194519 710.880920,350.194519 
	C716.867920,341.060211 722.454346,332.602234 727.975342,324.101715 
	C746.035034,296.296356 764.068665,268.474030 782.131348,240.670563 
	C782.473999,240.143250 783.051697,239.768692 783.759888,239.661423 
	C784.000000,328.666656 784.000000,417.333344 784.000000,506.000000 
	C781.988586,506.000000 779.992188,506.000000 777.497925,506.000000 
z"/>
<path fill="#000000" opacity="1.000000" stroke="none" 
	d="
M403.468658,506.000000 
	C405.672089,501.832123 408.088348,497.471313 411.060822,493.529968 
	C423.633820,476.858734 436.366028,460.307404 449.052551,443.721863 
	C458.077637,431.923096 467.115997,420.134491 476.174225,408.361176 
	C476.762604,407.596436 477.571655,407.001434 478.862427,405.769928 
	C480.316620,414.168915 481.686096,421.910034 482.992645,429.661774 
	C485.292938,443.309357 487.551392,456.963959 489.833649,470.614563 
	C491.766205,482.173370 493.707672,493.730682 495.322601,505.644318 
	C464.645782,506.000000 434.291534,506.000000 403.468658,506.000000 
z"/>
<path fill="#000000" opacity="1.000000" stroke="none" 
	d="
M188.531342,1.000003 
	C185.981110,7.432179 183.195709,13.987246 179.889755,20.268333 
	C174.661240,30.202206 169.297607,40.078121 163.608994,49.753876 
	C152.324081,68.948357 140.780151,87.990547 129.321335,107.082520 
	C129.185547,107.308777 128.758347,107.360146 129.073288,107.216293 
	C129.379272,87.089981 130.079132,66.691849 129.869186,46.303078 
	C129.716522,31.474594 128.361664,16.658487 127.771400,1.418431 
	C148.020889,1.000000 168.041794,1.000000 188.531342,1.000003 
z"/>
<path fill="#000000" opacity="1.000000" stroke="none" 
	d="
M598.468628,506.000000 
	C598.500977,504.325684 598.716248,502.492737 599.544922,501.000397 
	C617.003906,469.560730 634.506836,438.145294 652.097595,406.779205 
	C653.422668,404.416534 655.470764,402.459320 657.094910,400.423676 
	C656.728577,418.905884 655.920837,437.285126 656.132019,455.652649 
	C656.321838,472.158844 657.630676,488.652161 658.222900,505.575562 
	C638.312439,506.000000 618.624878,506.000000 598.468628,506.000000 
z"/>
<path fill="#000000" opacity="1.000000" stroke="none" 
	d="
M469.926392,10.291183 
	C469.987427,44.600376 469.786377,78.435013 470.175018,112.262871 
	C470.252625,119.017372 468.151611,124.092758 464.322327,129.279938 
	C447.378357,152.232101 430.729950,175.402161 413.867737,198.415070 
	C396.895630,221.577927 379.713898,244.587402 362.778900,267.777191 
	C347.399384,288.837097 332.263641,310.074799 316.954041,331.185944 
	C304.314941,348.614563 291.598663,365.987427 278.827637,383.319427 
	C278.181305,384.196594 276.692657,384.925598 275.594116,384.928467 
	C242.946518,385.013184 210.298660,384.997284 177.510696,384.997284 
	C177.510696,356.875763 177.510696,329.024231 177.510696,300.487854 
	C164.423492,315.115753 151.794647,329.146667 139.262207,343.263153 
	C126.908562,357.178314 114.645500,371.173950 102.362740,385.151886 
	C100.850235,386.873138 99.229729,388.563568 98.058983,390.508850 
	C94.764503,395.982849 89.766228,395.759735 84.475060,394.982422 
	C66.221100,392.300903 47.959679,389.670044 29.707546,386.976196 
	C24.697201,386.236725 19.709366,385.344757 14.480013,384.484772 
	C14.013886,380.131989 13.342118,375.439056 13.044847,370.722565 
	C12.566508,363.133240 12.381480,355.525970 11.990793,347.930481 
	C11.015382,328.967133 10.058253,310.002411 8.954415,291.046356 
	C8.593214,284.843475 7.726962,278.670959 7.290964,272.470551 
	C7.226401,271.552368 8.207543,270.518005 8.804327,269.602203 
	C23.108183,247.652252 37.401550,225.695404 51.748482,203.773621 
	C62.622772,187.157944 73.574394,170.592865 84.463715,153.986984 
	C84.971954,153.211929 85.207619,152.258118 85.758751,150.934967 
	C62.036720,150.934967 38.779907,150.934967 15.263355,150.934967 
	C15.263355,102.991455 15.263355,55.387028 15.263355,7.573563 
	C50.485744,7.573563 85.817467,7.573563 121.601639,7.573563 
	C122.127632,10.181956 122.907814,12.337450 122.946533,14.506180 
	C123.364792,37.935921 123.868645,61.367546 123.891785,84.799103 
	C123.900040,93.160332 122.450241,101.514832 122.142494,109.889915 
	C122.058746,112.168724 123.708687,114.511238 124.562958,116.824509 
	C127.110672,115.644394 130.576752,115.143585 132.041962,113.162750 
	C137.450211,105.851364 142.647476,98.304520 147.109390,90.387093 
	C161.821106,64.281860 176.134201,37.952168 190.768600,11.802817 
	C191.706604,10.126759 194.064697,8.174022 195.775635,8.161301 
	C225.594910,7.939582 255.416290,8.001315 285.686249,8.001315 
	C291.569733,44.222107 297.433563,80.322014 303.441132,117.306877 
	C308.180054,111.360825 312.595520,105.971939 316.847687,100.457153 
	C329.910950,83.514793 342.946350,66.550659 355.924957,49.543350 
	C365.031891,37.609531 374.025024,25.588879 383.076233,13.612475 
	C385.351624,10.601714 387.867249,8.824170 392.170837,8.871680 
	C416.333801,9.138428 440.501282,8.983347 464.667114,9.035008 
	C466.402466,9.038718 468.136810,9.542813 469.926392,10.291183 
z"/>
<path fill="#000000" opacity="1.000000" stroke="none" 
	d="
M650.993164,398.043579 
	C643.955261,409.588379 636.573364,420.543152 630.095337,432.008606 
	C617.920593,453.556763 606.307739,475.422028 594.303406,497.067841 
	C593.547302,498.431213 591.434021,499.869232 589.945129,499.876678 
	C560.450867,500.024536 530.955627,499.966949 501.460571,499.937347 
	C501.153839,499.937042 500.847290,499.754089 500.406158,499.613556 
	C494.522095,463.660187 488.629761,427.656311 482.576874,390.671539 
	C477.830902,396.667511 473.370056,402.169403 469.053711,407.782379 
	C457.408203,422.926117 445.807404,438.104370 434.220856,453.293335 
	C423.128113,467.834869 412.124725,482.445160 400.929504,496.907104 
	C399.807343,498.356659 397.634460,499.857239 395.939026,499.869080 
	C369.944214,500.051025 343.947662,499.990814 317.951538,499.973206 
	C317.481415,499.972900 317.011414,499.804810 316.000031,499.611603 
	C316.000031,497.859436 316.000031,496.084229 316.000031,494.309052 
	C316.000031,462.147125 316.314301,429.979950 315.779510,397.826904 
	C315.645477,389.766479 318.320740,383.729218 322.792847,377.640350 
	C337.650848,357.411072 352.272949,337.008728 367.061127,316.727905 
	C383.685181,293.929382 400.429077,271.218231 417.050140,248.417542 
	C430.400513,230.103577 443.626801,211.699234 456.942078,193.359619 
	C471.881104,172.783524 487.346619,152.564453 501.554535,131.496445 
	C506.541016,124.102371 511.976471,122.749466 519.901123,122.857117 
	C547.225342,123.228249 574.557800,122.999931 601.887085,122.999931 
	C603.700989,122.999931 605.514954,122.999931 607.968262,122.999931 
	C607.968262,150.745361 607.968262,178.241150 607.968262,205.736938 
	C608.359985,205.891510 608.751709,206.046082 609.143433,206.200653 
	C636.741943,174.786270 664.340515,143.371887 692.354675,111.484413 
	C717.971130,115.051155 744.120239,118.692055 770.901428,122.420967 
	C771.239258,124.802925 771.819519,127.473427 771.968018,130.167725 
	C773.031250,149.457092 773.962891,168.753708 775.027588,188.042984 
	C775.590637,198.244064 776.303955,208.437363 777.023926,218.628922 
	C777.196472,221.071533 777.571960,223.510437 778.016113,225.921219 
	C779.370056,233.270554 776.293213,239.237167 772.427246,245.098862 
	C754.506470,272.271332 736.642090,299.481110 718.817383,326.716644 
	C712.695190,336.071106 706.746826,345.539276 700.210876,355.749359 
	C724.240723,355.749359 747.269775,355.749359 770.647949,355.749359 
	C770.647949,403.944672 770.647949,451.662994 770.647949,499.691040 
	C735.295715,499.691040 699.904724,499.691040 664.071655,499.691040 
	C663.711975,493.753998 663.163269,487.881195 663.035278,481.999298 
	C662.608765,462.405457 662.083435,442.807953 662.111389,423.212616 
	C662.124268,414.184052 663.503235,405.163971 663.865417,396.124115 
	C663.943726,394.169403 662.314941,392.146301 661.472412,390.154694 
	C659.604187,390.978546 657.524841,391.516876 655.923279,392.701294 
	C654.080688,394.063965 652.660767,395.998108 650.993164,398.043579 
z"/>
</svg>